<svg width="1440" height="2647" viewBox="0 0 1440 2647" fill="none" xmlns="http://www.w3.org/2000/svg">
<defs>
<linearGradient id="curve-grad" x1="0%" y1="0%" x2="100%" y2="100%">
<stop offset="0%" stop-color="#00B4FD"/>
<stop offset="100%" stop-color="#003ACE"/>
</linearGradient>
</defs>
<path opacity="0.2" d="M33.1956 956.299C157.377 1019.41 237.949 1146.69 238.029 1289.02H237.969L237.976 1289.53C240.81 1492.1 65.8693 1667.74 -139.259 1662.78H-139.264C-285.886 1661.04 -412.648 1576.24 -473.278 1448.37C-187.523 1510.9 87.3893 1241.61 33.1956 956.299ZM-553.623 689.547C-613.841 922.744 -451.604 1172.11 -216.27 1212.88L-216.228 1212.89H-216.178C-169.085 1221.94 -117.259 1222.97 -69.5662 1215.44C-182.753 1421.48 -492.941 1462.22 -655.307 1289.94L-655.318 1289.93L-655.331 1289.92L-657.436 1287.95C-746.094 1204.38 -776.69 1079.94 -757.045 963.874C-737.3 847.221 -666.814 739.112 -553.623 689.547ZM41.5647 660.585C158.756 639.287 285.41 669.975 371.906 761.948L371.917 761.96L371.929 761.972C459.239 843.341 491.549 963.943 475.56 1077.7C459.614 1191.15 395.641 1297.72 290.372 1351.73C309.803 1222.33 266.597 1088.81 179.924 996.794L177.864 994.622C77.0354 884.802 -86.0167 835.378 -231.416 870.058C-182.687 754.748 -75.2986 681.824 41.5647 660.585ZM-508.657 790.319C-509.425 412.192 -0.871364 275.99 187.751 603.174C-106.877 539.777 -384.639 828.85 -312.147 1119.21C-431.945 1054.45 -508.657 929.598 -508.657 790.319Z" stroke="url(#curve-grad)"/>
</svg>